<svg xmlns="http://www.w3.org/2000/svg" xmlns:xlink="http://www.w3.org/1999/xlink" width="512" height="512" viewBox="0 0 512 512">
  <defs>
    <linearGradient id="linear-gradient" x1="0.091" y1="0.075" x2="1.031" y2="1" gradientUnits="objectBoundingBox">
      <stop offset="0" stop-color="#76db76"/>
      <stop offset="1" stop-color="#114d21"/>
    </linearGradient>
    <clipPath id="clip-Custom_Size_1">
      <rect width="512" height="512"/>
    </clipPath>
  </defs>
  <g id="Custom_Size_1" data-name="Custom Size – 1" clip-path="url(#clip-Custom_Size_1)">
    <rect width="512" height="512" fill="#35a853"/>
    <g id="Component_3_1" data-name="Component 3 – 1">
      <g id="Component_2_1" data-name="Component 2 – 1">
        <rect id="Rectangle_1" data-name="Rectangle 1" width="512" height="512" fill="url(#linear-gradient)"/>
      </g>
      <g id="Group_7" data-name="Group 7" transform="translate(42 11)">
        <g id="Group_6" data-name="Group 6" transform="translate(44 74)" style="mix-blend-mode: screen;isolation: isolate">
          <path id="Path_7" data-name="Path 7" d="M299.476,4.165a6.82,6.82,0,0,0-6.3-4.16C28.567.005,0,108.267,0,154.82c0,60.391,46.581,100.966,115.906,100.966,87.557,0,105.9-82.254,115.757-126.437C244.918,69.86,274.085,35.127,298,11.5A6.654,6.654,0,0,0,299.476,4.165Zm-81.135,122.29c-12.5,56.056-31.745,115.869-102.434,115.869-61.171,0-102.271-35.163-102.271-87.5,0-41.585,26.072-137.1,263.449-141.218C254.545,38.089,230.313,72.674,218.341,126.455Z" transform="translate(21 20.995)" fill="#fff"/>
          <path id="Path_8" data-name="Path 8" d="M173.328,110.5a6.011,6.011,0,0,0-8.3-3.149C64.05,160.806,0,290.281,0,330.635a6.521,6.521,0,0,0,6.213,6.787,6.521,6.521,0,0,0,6.213-6.787c0-31.721,56.049-157.084,158.02-211.065A7.1,7.1,0,0,0,173.328,110.5Z" transform="translate(32 -15.422)" fill="#fff"/>
        </g>
      </g>
    </g>
  </g>
</svg>
